<?xml version="1.0" encoding="UTF-8"?>
<svg width="56px" height="53px" viewBox="0 0 56 53" version="1.1" xmlns="http://www.w3.org/2000/svg" xmlns:xlink="http://www.w3.org/1999/xlink">
    <title>Group 12</title>
    <g id="Home" stroke="none" stroke-width="1" fill="none" fill-rule="evenodd">
        <g id="Contact" transform="translate(-480.000000, -546.000000)">
            <g id="Group-3" transform="translate(480.000000, 297.000000)">
                <g id="Group-5" transform="translate(0.000000, 38.000000)">
                    <g id="Group-4" transform="translate(0.000000, 210.000000)">
                        <g id="Group" transform="translate(0.000000, 1.000000)">
                            <g id="Group-12">
                                <circle id="Oval" fill="#5B3BE8" opacity="0.200000003" cx="30.5" cy="27.5" r="25.5"></circle>
                                <g id="pin" fill="#000000" fill-rule="nonzero">
                                    <path d="M16.5048959,34.1335256 C18.5229032,37.0645179 20.5376566,39.685947 21.872914,41.3743484 C22.0672881,41.6200273 22.2494121,41.8479605 22.425794,42.0675138 L18.396383,42.0675138 C17.9453316,42.0675138 17.5797437,42.4441162 17.5797437,42.9087569 C17.5797437,43.3733976 17.9453316,43.75 18.396383,43.75 L31.4629945,43.75 C31.9140458,43.75 32.2796338,43.3733976 32.2796338,42.9087569 C32.2796338,42.4441162 31.9140458,42.0675138 31.4629945,42.0675138 L27.4335835,42.0675138 C27.6099653,41.8479605 27.7920894,41.6199287 27.9873248,41.3743484 C29.3217209,39.6917636 31.3357086,37.0645179 33.3544815,34.1335256 C35.3574633,31.2838675 37.1603288,28.2905682 38.7493923,25.1764998 C40.4170285,21.8029503 41.2631579,19.0023886 41.2631579,16.8521069 C41.2686953,12.3840442 39.5475608,8.09748028 36.4798758,4.93875191 C36.2749743,4.71988871 35.9714023,4.63194908 35.6858226,4.70874838 C35.4002429,4.78554767 35.1770619,5.01505827 35.102126,5.30914338 C35.02719,5.60322848 35.1120792,5.91604512 35.3242542,6.1274157 C38.085496,8.97105993 39.6346511,12.8298548 39.6297702,16.8520083 C39.6297702,18.7348234 38.8441389,21.278763 37.2941225,24.4125489 C35.7409479,27.4544516 33.9789479,30.3783457 32.0217124,33.1618518 C30.0306936,36.0549867 28.0404403,38.6469383 26.7215483,40.3126647 C26.2830341,40.8662309 25.8885437,41.355814 25.5520496,41.769781 C25.3949999,41.9545331 25.1681822,42.0604155 24.9297844,42.0604155 C24.6913866,42.0604155 24.464569,41.9544345 24.3075193,41.769781 C23.9710252,41.3559126 23.5766304,40.8662309 23.1380206,40.3126647 C21.8191285,38.6478256 19.8288753,36.0557754 17.8378564,33.1618518 C15.880621,30.3783457 14.118621,27.4544516 12.5654464,24.4125489 C11.013803,21.278763 10.2297986,18.7348234 10.2297986,16.8520083 C10.2293201,10.7584427 13.76691,5.25551203 19.2132137,2.87759293 C22.8727301,1.29684853 26.9952607,1.29684853 30.6547771,2.87759293 C30.923513,2.99491149 31.2325401,2.95577244 31.4655785,2.77466807 C31.6986169,2.59366229 31.8201605,2.29829555 31.7844631,1.99987262 C31.7487656,1.70144969 31.5612821,1.44532059 31.2925463,1.32800203 C22.97609,-2.28540971 13.3906033,1.72846253 9.88028889,10.294295 C9.02900487,12.3691576 8.59240479,14.5994919 8.59649123,16.8520083 C8.59649123,19.00229 9.44263607,21.8029503 11.1102723,25.1806404 C12.6991444,28.2933286 14.5021055,31.2852478 16.5048959,34.1335256 Z" id="Path"></path>
                                    <path d="M24.5004846,8.66234544 C24.9515071,8.66234544 25.3170717,8.29025124 25.3170717,7.83117272 C25.3170717,7.3720942 24.9515071,7 24.5004846,7 C20.6046379,7 17.2512048,9.80112901 16.4910793,13.69039 C15.7309537,17.579651 17.7759144,21.4737824 21.3751945,22.9913813 C24.9744745,24.5089801 29.125738,23.2272033 31.2902249,19.9300785 C33.4547118,16.6329538 33.0295276,12.2386382 30.2747783,9.434587 C30.0696985,9.21853859 29.7661459,9.13184649 29.4805845,9.20792125 C29.1951187,9.283996 28.9721435,9.51095398 28.8974037,9.80151864 C28.8226639,10.0921807 28.9078347,10.4011553 29.1200919,10.6098982 C31.3240061,12.8530807 31.6642109,16.3683968 29.9327553,19.0061745 C28.2012998,21.6439522 24.8803082,22.6694516 22.000865,21.4555673 C19.1214218,20.2416831 17.4853767,17.1264169 18.0932474,14.0149497 C18.7011182,10.9034824 21.3838073,8.66244284 24.5004846,8.66234544 Z" id="Path"></path>
                                    <path d="M48.6925501,45.3524076 L43.6700323,36.2937978 C43.2159194,35.4889484 42.3661683,34.9942651 41.4478936,35 L35.627496,35 C35.1764456,35 34.8108583,35.3687035 34.8108583,35.8235303 C34.8108583,36.2783571 35.1764456,36.6470052 35.627496,36.6470052 L41.4478936,36.6470052 C41.7748166,36.6406359 42.0798236,36.8125108 42.2457734,37.0966207 L47.2666642,46.1552304 C47.4034245,46.390895 47.4005534,46.6832078 47.2592951,46.9161702 C47.0924839,47.1941039 46.7908266,47.3605745 46.4687844,47.3526611 L2.5319939,47.3526611 C2.21023885,47.3603815 1.90896435,47.1938144 1.74224891,46.9161702 C1.6009906,46.6832078 1.5982152,46.390895 1.73487975,46.1552304 L6.75577059,37.0966207 C6.92143329,36.8126073 7.22615312,36.6407324 7.55278905,36.6470052 L13.3731866,36.6470052 C13.8242371,36.6470052 14.1898243,36.2783571 14.1898243,35.8235303 C14.1898243,35.3687035 13.8242371,35 13.3731866,35 L7.55288475,35 C6.63413149,34.9939756 5.78371051,35.4886589 5.32911905,36.2937978 L0.307366873,45.3524076 C-0.111335783,46.0981961 -0.101669733,47.013061 0.332728291,47.7496816 C0.790382257,48.5340721 1.62960594,49.011095 2.5319939,48.9998039 L46.4687844,48.9998039 C47.3708853,49.0108055 48.2098219,48.5338791 48.6672844,47.7496816 C49.1016824,47.0129645 49.1113485,46.0981961 48.6925501,45.3524076 Z" id="Path"></path>
                                    <path d="M40.4035557,38.5 L36.9650461,38.5 C36.7953016,38.5003076 36.6293852,38.5513678 36.4879483,38.6470287 L33.9090409,40.3969164 C33.514045,40.6651361 33.4074636,41.2084451 33.6708949,41.6104671 C33.934427,42.0124891 34.4682407,42.1209663 34.8632366,41.8528491 L37.2229369,40.2499902 L40.4035557,40.2499902 C40.8783366,40.2499902 41.2631579,39.8582212 41.2631579,39.3750976 C41.2631579,38.8916664 40.8783366,38.5 40.4035557,38.5 Z" id="Path"></path>
                                    <path d="M35.245614,45.0625 C35.245614,45.3041427 35.59196,45.5 36.019271,45.5 L42.2087991,45.5 C42.6361102,45.5 42.9824561,45.3041427 42.9824561,45.0625 C42.9824561,44.8208573 42.6361102,44.625 42.2087991,44.625 L36.019271,44.625 C35.59196,44.625 35.245614,44.8208573 35.245614,45.0625 Z" id="Path"></path>
                                    <path d="M14.6130133,42 C14.9919451,42.0005119 15.3264566,41.7482708 15.4365503,41.3791375 C15.546644,41.0100041 15.4062318,40.6110325 15.0909589,40.3970377 L12.5123695,38.6470381 C12.3707486,38.5512685 12.2044497,38.5001025 12.0344239,38.5 L8.59633833,38.5 C8.12161599,38.5 7.73684211,38.891794 7.73684211,39.3749485 C7.73684211,39.8582056 8.12171672,40.2498971 8.59633833,40.2498971 L11.776565,40.2498971 L14.1385932,41.8528586 C14.2791062,41.9484231 14.4441963,41.9995891 14.6130133,42 Z" id="Path"></path>
                                    <path d="M6.79120087,44.625 C6.36388978,44.625 6.01754386,44.8208573 6.01754386,45.0625 C6.01754386,45.3041427 6.36388978,45.5 6.79120087,45.5 L12.980729,45.5 C13.40804,45.5 13.754386,45.3041427 13.754386,45.0625 C13.754386,44.8208573 13.40804,44.625 12.980729,44.625 L6.79120087,44.625 Z" id="Path"></path>
                                </g>
                            </g>
                        </g>
                    </g>
                </g>
            </g>
        </g>
    </g>
</svg>